<svg width="48" height="48" viewBox="0 0 48 48" fill="none" xmlns="http://www.w3.org/2000/svg">
  <!-- 背景圆形 -->
  <circle cx="24" cy="24" r="22" fill="#3498db" stroke="#2980b9" stroke-width="2"/>
  
  <!-- 知识图谱核心节点 -->
  <circle cx="24" cy="24" r="6" fill="white" stroke="#3498db" stroke-width="1"/>
  
  <!-- 外围知识节点 -->
  <circle cx="12" cy="12" r="2.5" fill="white"/>
  <circle cx="36" cy="12" r="2.5" fill="white"/>
  <circle cx="12" cy="36" r="2.5" fill="white"/>
  <circle cx="36" cy="36" r="2.5" fill="white"/>
  <circle cx="24" cy="8" r="2.5" fill="white"/>
  <circle cx="24" cy="40" r="2.5" fill="white"/>
  <circle cx="8" cy="24" r="2.5" fill="white"/>
  <circle cx="40" cy="24" r="2.5" fill="white"/>
  
  <!-- 连接线 -->
  <line x1="12" y1="12" x2="24" y2="24" stroke="white" stroke-width="1.5"/>
  <line x1="36" y1="12" x2="24" y2="24" stroke="white" stroke-width="1.5"/>
  <line x1="12" y1="36" x2="24" y2="24" stroke="white" stroke-width="1.5"/>
  <line x1="36" y1="36" x2="24" y2="24" stroke="white" stroke-width="1.5"/>
  <line x1="24" y1="8" x2="24" y2="18" stroke="white" stroke-width="1.5"/>
  <line x1="24" y1="30" x2="24" y2="40" stroke="white" stroke-width="1.5"/>
  <line x1="8" y1="24" x2="18" y2="24" stroke="white" stroke-width="1.5"/>
  <line x1="30" y1="24" x2="40" y2="24" stroke="white" stroke-width="1.5"/>
  
  <!-- 中心计算符号 -->
  <text x="24" y="28" text-anchor="middle" fill="#3498db" font-family="Arial, sans-serif" font-size="10" font-weight="bold">KC</text>
  
  <!-- 数据流指示器 -->
  <circle cx="6" cy="6" r="1" fill="white"/>
  <circle cx="42" cy="6" r="1" fill="white"/>
  <circle cx="6" cy="42" r="1" fill="white"/>
  <circle cx="42" cy="42" r="1" fill="white"/>
</svg>
